<svg width="56" height="38" viewBox="0 0 56 38" fill="none" xmlns="http://www.w3.org/2000/svg">
<path d="M0.953125 19C3.30312 8.33333 14.5206 0.25 28.0006 0.25C41.4806 0.25 52.6956 8.33333 55.0481 19C52.6981 29.6667 41.4806 37.75 28.0006 37.75C14.5206 37.75 3.30562 29.6667 0.953125 19V19ZM28.0006 29.4167C31.3158 29.4167 34.4953 28.3192 36.8395 26.3657C39.1837 24.4122 40.5006 21.7627 40.5006 19C40.5006 16.2373 39.1837 13.5878 36.8395 11.6343C34.4953 9.6808 31.3158 8.58333 28.0006 8.58333C24.6854 8.58333 21.506 9.6808 19.1618 11.6343C16.8176 13.5878 15.5006 16.2373 15.5006 19C15.5006 21.7627 16.8176 24.4122 19.1618 26.3657C21.506 28.3192 24.6854 29.4167 28.0006 29.4167ZM28.0006 25.25C26.0115 25.25 24.1038 24.5915 22.6973 23.4194C21.2908 22.2473 20.5006 20.6576 20.5006 19C20.5006 17.3424 21.2908 15.7527 22.6973 14.5806C24.1038 13.4085 26.0115 12.75 28.0006 12.75C29.9897 12.75 31.8974 13.4085 33.3039 14.5806C34.7105 15.7527 35.5006 17.3424 35.5006 19C35.5006 20.6576 34.7105 22.2473 33.3039 23.4194C31.8974 24.5915 29.9897 25.25 28.0006 25.25Z" fill="#5C6470"/>
</svg>
