<svg xmlns="http://www.w3.org/2000/svg" xmlns:xlink="http://www.w3.org/1999/xlink" width="373.003" height="109.688" viewBox="0 0 373.003 109.688">
  <defs>
    <clipPath id="clip-path">
      <path id="Path_4" data-name="Path 4" d="M0,18.271H373V-91.417H0Z" transform="translate(0 91.417)" fill="#fff"/>
    </clipPath>
  </defs>
  <g id="Group_4" data-name="Group 4" clip-path="url(#clip-path)">
    <g id="Group_1" data-name="Group 1" transform="translate(131.674 79.123)">
      <path id="Path_1" data-name="Path 1" d="M31.358,1.127q-1.28.819-1.279,3.238a4.222,4.222,0,0,0,.76,2.721,4.423,4.423,0,0,0,2.533,1.335l4.2.957q.634.151.976.264a3.56,3.56,0,0,1,.7.328,1.153,1.153,0,0,1,.493.554,2.328,2.328,0,0,1,.139.87,1.594,1.594,0,0,1-.86,1.638,10.264,10.264,0,0,1-3.42.4q-3.243,0-5.041-.126l-.178,1.839a35.742,35.742,0,0,0,5.725.428,10.242,10.242,0,0,0,4.825-.82q1.406-.817,1.406-3.363a3.971,3.971,0,0,0-.8-2.709,4.659,4.659,0,0,0-2.571-1.272l-4.255-.959A4.363,4.363,0,0,1,33.03,5.8a1.776,1.776,0,0,1-.468-1.436q0-1.285.709-1.587A8.649,8.649,0,0,1,36.183,2.5c.54,0,1.119.008,1.735.024s1.3.038,2.064.064,1.343.047,1.748.064l.2-1.839A45.507,45.507,0,0,0,35.777.359a8.431,8.431,0,0,0-4.419.768M17.212,3.383V11.4a17.389,17.389,0,0,1-2.545,1.587,4.854,4.854,0,0,1-2.065.428,2.863,2.863,0,0,1-2.6-1.184,8.471,8.471,0,0,1-.773-4.309q0-3.15.773-4.246a3.134,3.134,0,0,1,2.748-1.1,17.707,17.707,0,0,1,4.458.806m2.559-9.022H17.212v4.486a28.3,28.3,0,0,0,.127,2.846A10.446,10.446,0,0,0,12.147.359,4.973,4.973,0,0,0,7.941,2.071Q6.626,3.787,6.625,7.944a10.845,10.845,0,0,0,1.215,5.77,4.319,4.319,0,0,0,3.926,1.89,8.572,8.572,0,0,0,5.775-2.444l.253,2.091h1.976ZM-6.293,11.169a8.5,8.5,0,0,1-2.647,1.613,7.462,7.462,0,0,1-2.62.554,2.582,2.582,0,0,1-1.735-.529,2.14,2.14,0,0,1-.545-1.638v-.932q0-1.991,1.9-1.991h5.648Zm-9.5-10.154.254,1.89q4.456-.4,6.256-.4a3.62,3.62,0,0,1,2.342.566,2.5,2.5,0,0,1,.646,1.953V6.306h-6.1a4.358,4.358,0,0,0-2.976.944,3.317,3.317,0,0,0-1.076,2.634v1.587a3.8,3.8,0,0,0,1.19,3,4.627,4.627,0,0,0,3.192,1.058,7.4,7.4,0,0,0,3.406-.806,10.009,10.009,0,0,0,2.622-1.865l.3,2.394h2V5.021a4.548,4.548,0,0,0-1.227-3.6A5.651,5.651,0,0,0-8.723.359a45.064,45.064,0,0,0-7.067.655M-29.644,3.672q.912,1.172.912,4.322t-.912,4.321a3.991,3.991,0,0,1-3.318,1.172,3.955,3.955,0,0,1-3.292-1.172q-.912-1.172-.913-4.321t.913-4.322A3.954,3.954,0,0,1-32.962,2.5a3.99,3.99,0,0,1,3.318,1.171M-38.268,2.1q-1.559,1.739-1.559,5.9,0,4.183,1.559,5.908t5.306,1.727q3.774,0,5.319-1.713T-26.1,7.994q0-4.158-1.544-5.9T-32.962.359q-3.749,0-5.306,1.739m-16.2-7.737V11.824a3.739,3.739,0,0,0,.95,2.733,3.459,3.459,0,0,0,2.6.971,6.6,6.6,0,0,0,2.684-.4l-.3-1.94h-1.418a1.731,1.731,0,0,1-1.976-1.94V-5.639ZM-78.807.711l-3.8,10.836c-.067.185-.173.475-.317.869s-.25.694-.317.9h-.431q-.1-.479-.532-1.764L-88.077.711h-2.736L-85.494,14.6a.874.874,0,0,0,.887.655h.583l-.253.63a6.061,6.061,0,0,1-1.532,2.369,7.163,7.163,0,0,1-2.724,1.487l.253,1.663q4.408-.227,6.383-5.342L-76.046.711Zm-31.445.416q-1.28.819-1.279,3.238a4.223,4.223,0,0,0,.759,2.721,4.423,4.423,0,0,0,2.533,1.335l4.206.957q.632.151.974.264a3.527,3.527,0,0,1,.7.328,1.152,1.152,0,0,1,.493.554,2.3,2.3,0,0,1,.139.87,1.593,1.593,0,0,1-.861,1.638,10.25,10.25,0,0,1-3.418.4q-3.243,0-5.041-.126l-.178,1.839a35.741,35.741,0,0,0,5.725.428,10.242,10.242,0,0,0,4.825-.82q1.406-.817,1.406-3.363a3.972,3.972,0,0,0-.8-2.709,4.659,4.659,0,0,0-2.571-1.272l-4.255-.959A4.371,4.371,0,0,1-108.58,5.8a1.776,1.776,0,0,1-.468-1.436q0-1.285.709-1.587a8.649,8.649,0,0,1,2.912-.277q.812,0,1.735.024t2.065.064q1.139.038,1.747.064l.2-1.839a45.506,45.506,0,0,0-6.155-.454,8.431,8.431,0,0,0-4.419.768M-124.27,11.169a8.532,8.532,0,0,1-2.648,1.613,7.462,7.462,0,0,1-2.621.554,2.582,2.582,0,0,1-1.735-.529,2.14,2.14,0,0,1-.545-1.638v-.932q0-1.991,1.9-1.991h5.649Zm-9.5-10.154.253,1.89q4.458-.4,6.256-.4a3.624,3.624,0,0,1,2.343.566,2.5,2.5,0,0,1,.647,1.953V6.306h-6.1a4.356,4.356,0,0,0-2.976.944,3.321,3.321,0,0,0-1.076,2.634v1.587a3.8,3.8,0,0,0,1.189,3,4.631,4.631,0,0,0,3.192,1.058,7.4,7.4,0,0,0,3.408-.806,10.009,10.009,0,0,0,2.622-1.865l.3,2.394h2V5.021a4.545,4.545,0,0,0-1.229-3.6A5.645,5.645,0,0,0-126.7.359a45.064,45.064,0,0,0-7.067.655m-13.525,2.091a2.384,2.384,0,0,1,.836,1.989q0,2.169-1.6,2.168h-6.181q.076-2.747.976-3.754a4.161,4.161,0,0,1,3.2-1.008,4.75,4.75,0,0,1,2.76.6m-8.042-1.058q-1.557,1.688-1.557,5.9,0,4.158,1.595,5.908t5.4,1.752a15.483,15.483,0,0,0,5.673-.806l-.278-1.688a37.81,37.81,0,0,1-5.066.353,5.278,5.278,0,0,1-3.393-.87,4.81,4.81,0,0,1-1.242-3.363h6.814q3.5,0,3.5-4.134a4.382,4.382,0,0,0-1.545-3.565A7.685,7.685,0,0,0-150.181.359q-3.6,0-5.155,1.688" transform="translate(156.893 5.639)" fill="#52c179"/>
    </g>
    <g id="Group_2" data-name="Group 2" transform="translate(0 0)">
      <path id="Path_2" data-name="Path 2" d="M11.574.232A1.819,1.819,0,0,0,9.118-1.029c-35.633,14.5-57.656,34.376-65.459,59.078-5.09,16.115,3.655,24.551,6.111,26.535-2.3,13.112-1.026,21.956-.96,22.393a1.819,1.819,0,0,0,1.8,1.548,1.771,1.771,0,0,0,.274-.02,1.821,1.821,0,0,0,1.529-2.072c-.073-.482-6.719-48.735,42.741-86.179A1.82,1.82,0,0,0-4.5,17.7a1.821,1.821,0,0,0-2.55-.353c-26.707,20.218-37.292,43.456-41.469,59.39-.331,1.263-.625,2.5-.893,3.705-2.716-2.816-7.168-9.564-3.462-21.3,7.306-23.13,27.9-41.935,61.225-55.921.676,6.99-.1,29.5-33.356,49.409a1.817,1.817,0,0,0-.75,2.249,1.814,1.814,0,0,0,2.109,1.082,85.912,85.912,0,0,1,10.111-1.878c-1.313,2.781-6.645,10.585-28.233,26.806a1.82,1.82,0,0,0-.362,2.549,1.821,1.821,0,0,0,2.55.361C-10,61.577-9.107,53.975-9.539,52.171c-.424-1.758-2.174-2.041-5.753-1.55C17.53,27.021,11.851,1.388,11.574.232" transform="translate(57.906 1.163)" fill="#fff"/>
    </g>
    <g id="Group_3" data-name="Group 3" transform="translate(89.965 17.271)">
      <path id="Path_3" data-name="Path 3" d="M45.4,2.834H42.83a1.942,1.942,0,0,0-1.977,1.977A1.942,1.942,0,0,0,42.83,6.788H45.4v18.2c0,4.811,2.835,8.307,8.044,8.307a1.979,1.979,0,1,0,0-3.956c-2.243,0-3.824-1.517-3.824-4.351V6.788h4.286a1.942,1.942,0,0,0,1.977-1.977,1.942,1.942,0,0,0-1.977-1.977H49.621V-4.09A2.124,2.124,0,0,0,47.512-6.2,2.169,2.169,0,0,0,45.4-4.09ZM33.072,15.294H15.337c.4-5.867,3.56-9.561,9.3-9.561,6.791,0,8.439,4.814,8.439,9.561M11.051,17.734c0,11.077,5.473,15.89,14.243,15.89A14.684,14.684,0,0,0,35.579,29.93a1.971,1.971,0,0,0,.725-1.515A1.914,1.914,0,0,0,34.391,26.5a1.841,1.841,0,0,0-1.187.4,12.144,12.144,0,0,1-7.911,2.835c-6.2,0-9.957-4.22-9.957-10.747H34.589c2.637,0,2.637-2.307,2.637-4.22,0-4.483-2.043-12.857-12.593-12.857-8.572,0-13.582,5.671-13.582,15.824M-7.013,1.91c-4.286,0-7.516,2.111-8.769,4.615V4.415a2.082,2.082,0,0,0-2.109-2.109A2.082,2.082,0,0,0-20,4.415V31.184a2.082,2.082,0,0,0,2.111,2.109,2.082,2.082,0,0,0,2.109-2.109V14.9c0-5.275,2.241-9.229,8.769-9.229C-.617,5.669.9,9.229.9,14.437V31.184a2.082,2.082,0,0,0,2.109,2.109,2.083,2.083,0,0,0,2.111-2.109V13.58c0-5.6-1.979-11.67-12.132-11.67M-29.561,33.293a2.755,2.755,0,0,0,3.1-3.1c0-2.175-1.187-3.164-3.1-3.164s-3.1.989-3.1,3.164a2.756,2.756,0,0,0,3.1,3.1M-47.824,6a9.364,9.364,0,0,1,7.187,2.769,1.868,1.868,0,0,0,1.383.594,1.915,1.915,0,0,0,1.913-1.913A2.006,2.006,0,0,0-37.8,6.2c-2.043-2.7-5.537-4.219-10.021-4.219-5.6,0-10.087,2.505-10.087,7.977,0,10.812,17.339,8.11,17.339,14.9,0,3.428-3.231,4.681-6.988,4.681a11.159,11.159,0,0,1-8.373-3.23,2.024,2.024,0,0,0-1.452-.66A1.913,1.913,0,0,0-59.3,27.557a1.978,1.978,0,0,0,.461,1.254c1.715,2.175,5.869,4.747,11.275,4.747,6.263,0,11.208-2.7,11.208-8.7,0-10.549-17.339-7.978-17.339-14.9,0-3.033,2.9-3.956,5.867-3.956M-78.943,1.91C-87.448,1.91-92.2,6.92-92.2,17.734s5.011,15.89,13.515,15.89c7.517,0,12.923-4.286,12.923-12.989v-32.7a2.082,2.082,0,0,0-2.109-2.109,2.082,2.082,0,0,0-2.109,2.109V6.2A11.175,11.175,0,0,0-78.943,1.91m8.967,18.725c0,6.263-3.627,9.163-8.7,9.163-6.065,0-9.3-3.823-9.3-12.065,0-8.11,3.3-12,9.3-12,6.2,0,8.7,5.8,8.7,5.8ZM-111.249,29.8c-5.143,0-7.516-2.174-7.516-5.6,0-3.824,2.967-5.6,7.252-5.6h9.3V21.36c0,5.6-4.417,8.439-9.033,8.439M-110,5.866c4.813,0,7.78,2.769,7.78,7.253V14.9h-9.3c-7.12,0-11.538,3.494-11.538,9.3,0,6.065,4.418,9.429,11.406,9.429,3.957,0,7.78-1.649,9.429-4.748v2.373a2.054,2.054,0,0,0,2.043,2.045,2.054,2.054,0,0,0,2.045-2.045V13.119c0-6.725-4.22-11.209-11.868-11.209-5.537,0-9.1,2.309-10.945,5.209a2.054,2.054,0,0,0-.329,1.121,1.913,1.913,0,0,0,1.911,1.913,2.152,2.152,0,0,0,1.715-.923A9.121,9.121,0,0,1-110,5.866M-141.445,29.8c-6.065,0-9.561-3.625-9.561-12.065,0-8.307,3.5-12,9.561-12s9.559,3.693,9.559,12c0,8.44-3.493,12.065-9.559,12.065m0-27.889c-8.506,0-13.845,5.011-13.845,15.824s5.339,15.89,13.845,15.89c8.571,0,13.845-5.077,13.845-15.89S-132.874,1.91-141.445,1.91m-24.2-16.087a2.169,2.169,0,0,0-2.109,2.109V25.579c0,5.077,2.439,7.714,6.856,7.714a1.983,1.983,0,0,0,1.979-1.977,1.983,1.983,0,0,0-1.979-1.979c-1.779,0-2.637-1.121-2.637-3.758V-12.068a2.124,2.124,0,0,0-2.109-2.109M-196.233,4.811a1.942,1.942,0,0,0,1.977,1.977h14.176l-16.615,22.681a1.982,1.982,0,0,0-.463,1.319,1.943,1.943,0,0,0,1.979,1.977h19.318a2.054,2.054,0,0,0,2.045-2.043,2.054,2.054,0,0,0-2.045-2.043h-15.23L-174.674,6.13a2.218,2.218,0,0,0,.462-1.319,1.943,1.943,0,0,0-1.979-1.977h-18.065a1.942,1.942,0,0,0-1.977,1.977m-8.9,10.483h-17.736c.4-5.867,3.561-9.561,9.3-9.561,6.79,0,8.44,4.814,8.44,9.561m-22.021,2.439c0,11.077,5.471,15.89,14.24,15.89a14.676,14.676,0,0,0,10.285-3.693,1.972,1.972,0,0,0,.726-1.515,1.914,1.914,0,0,0-1.913-1.913,1.842,1.842,0,0,0-1.187.4,12.139,12.139,0,0,1-7.912,2.835c-6.2,0-9.955-4.22-9.955-10.747h19.253c2.637,0,2.637-2.307,2.637-4.22,0-4.483-2.045-12.857-12.594-12.857-8.571,0-13.581,5.671-13.581,15.824" transform="translate(227.154 14.177)" fill="#FF001E"/>
    </g>
  </g>
</svg>
