<svg width="20" height="20" viewBox="0 0 20 20" fill="none" xmlns="http://www.w3.org/2000/svg">
<g clip-path="url(#clip0_7340_286)">
<path d="M6.61366 10.6225C6.56173 11.1579 6.8037 13.0861 7.00414 13.7327C7.35255 13.7327 7.70772 13.7327 8.06238 13.7327C8.47778 13.7327 8.75921 13.9845 8.76129 14.3507C8.76337 14.7168 8.48038 14.9738 8.06913 14.9738C7.83806 14.9738 7.60647 14.9738 7.35203 14.9738C7.5441 15.5579 7.80339 16.1177 8.12468 16.6419C8.38431 17.0573 8.68185 17.438 9.077 17.7324C9.35356 17.9506 9.69283 18.0742 10.0449 18.085C10.3855 18.0923 10.6348 18.3753 10.6285 18.7285C10.6277 18.8078 10.6111 18.8862 10.5799 18.9592C10.5487 19.0322 10.5035 19.0983 10.4467 19.1537C10.39 19.2092 10.3228 19.2529 10.2491 19.2824C10.1755 19.3119 10.0967 19.3266 10.0174 19.3257C7.486 19.2997 5.29215 18.4226 3.47944 16.6574C1.86975 15.0902 0.953267 13.1656 0.721679 10.9331C0.224234 6.1367 3.50488 1.74384 8.24619 0.829855C13.2663 -0.137104 18.1369 3.12521 19.1427 8.14644C19.2601 8.73326 19.2907 9.34086 19.3333 9.93911C19.3608 10.3307 19.0794 10.6142 18.719 10.6142C18.3587 10.6142 18.099 10.3379 18.0959 9.93911C18.0875 8.71081 17.7997 7.50054 17.2542 6.4C17.2127 6.31587 17.1774 6.25407 17.0595 6.25511C16.1716 6.26134 15.2836 6.25822 14.3957 6.25874C14.3696 6.2605 14.3436 6.26362 14.3178 6.26809C14.3905 6.74638 14.4632 7.21791 14.5338 7.68997C14.5525 7.81824 14.5681 7.94703 14.578 8.07581C14.5905 8.23611 14.5406 8.39504 14.4387 8.5194C14.3368 8.64376 14.1908 8.72392 14.0312 8.74313C13.8716 8.762 13.711 8.71785 13.5835 8.62009C13.456 8.52233 13.3716 8.37867 13.3484 8.21966C13.2487 7.57416 13.1542 6.92813 13.056 6.27224H6.99115C6.7523 7.27659 6.63702 8.3012 6.596 9.3689H6.80682C7.86921 9.3689 8.93212 9.3689 9.99504 9.3689C10.1357 9.36574 10.2733 9.41063 10.3851 9.49616C10.4968 9.58169 10.5761 9.70276 10.6098 9.8394C10.6449 9.96545 10.6371 10.0996 10.5875 10.2207C10.538 10.3418 10.4496 10.443 10.3362 10.5083C10.2107 10.5727 10.0717 10.6067 9.93065 10.6075C8.89214 10.6152 7.85675 10.6121 6.82032 10.6121L6.61366 10.6225ZM12.6479 5.01395C12.6477 4.98618 12.6445 4.9585 12.6386 4.93138C12.3867 4.222 12.0933 3.52924 11.6167 2.9393C11.3697 2.64172 11.0868 2.37589 10.7744 2.14787C10.6253 2.0372 10.453 1.96172 10.2706 1.9271C10.0881 1.89247 9.90019 1.89959 9.72087 1.94793C9.26652 2.05803 8.92485 2.34157 8.62473 2.67964C8.05355 3.32359 7.69007 4.08594 7.39773 4.88672C7.38528 4.92856 7.37506 4.97103 7.36709 5.01395H12.6479ZM5.30566 9.3663C5.42664 8.32768 5.54555 7.30204 5.6655 6.27224C5.65584 6.26806 5.64537 6.26611 5.63486 6.26653C4.74123 6.26653 3.84811 6.26342 2.95499 6.27069C2.91763 6.27614 2.88194 6.28982 2.85051 6.31075C2.81908 6.33167 2.7927 6.35932 2.77325 6.39169C2.47524 6.96562 2.25554 7.57693 2.12003 8.20928C2.03954 8.58578 1.99074 8.96851 1.92479 9.36475L5.30566 9.3663ZM1.95439 10.6308C1.95439 10.6776 1.95439 10.7035 1.95439 10.729C2.04162 11.7432 2.32483 12.7308 2.78831 13.6371C2.8148 13.6891 2.9202 13.7285 2.98874 13.729C3.84967 13.7353 4.71059 13.7337 5.57151 13.7327C5.60337 13.7318 5.63512 13.7287 5.66654 13.7233C5.54555 12.6878 5.42612 11.6632 5.30618 10.6313L1.95439 10.6308ZM7.20405 2.41479C5.80234 2.932 4.57147 3.82775 3.6482 5.00253C3.67246 5.01139 3.69749 5.01799 3.72297 5.02226C4.45512 5.02226 5.18726 5.0259 5.91941 5.01811C5.95297 5.01174 5.98456 4.99757 6.01163 4.97673C6.03869 4.95589 6.06046 4.92897 6.07519 4.89815C6.2076 4.56838 6.30729 4.22304 6.45632 3.90262C6.68739 3.40097 6.95065 2.91385 7.20405 2.41479ZM12.7435 2.39091C13.3183 3.23427 13.6869 4.11191 13.9756 5.01239H16.373C15.432 3.81605 14.1746 2.90735 12.7435 2.38935V2.39091ZM7.22274 17.573C6.69933 16.7675 6.32806 15.8951 6.04092 14.9899H3.64144C4.60622 16.1984 5.78804 17.0537 7.22274 17.573Z" fill="white"/>
<path d="M14.3484 9.37891C17.0906 9.37891 19.3286 11.6068 19.3291 14.3415C19.3298 14.9974 19.2011 15.647 18.9503 16.253C18.6995 16.8591 18.3316 17.4097 17.8676 17.8733C17.4037 18.3369 16.8528 18.7044 16.2466 18.9547C15.6404 19.2051 14.9908 19.3333 14.3349 19.332C11.6109 19.332 9.37709 17.099 9.37501 14.3679C9.37371 13.7137 9.50136 13.0656 9.75066 12.4607C9.99995 11.8558 10.366 11.3059 10.8279 10.8426C11.2898 10.3793 11.8384 10.0115 12.4425 9.76036C13.0466 9.50921 13.6942 9.37959 14.3484 9.37891ZM14.3666 18.0867C16.4166 18.0867 18.086 16.4052 18.085 14.3409C18.085 12.3078 16.4078 10.6273 14.3765 10.6232C12.3093 10.619 10.6191 12.285 10.6197 14.3311C10.6169 14.8244 10.7118 15.3133 10.899 15.7697C11.0862 16.2261 11.3619 16.6409 11.7103 16.9901C12.0587 17.3393 12.4728 17.616 12.9288 17.8042C13.3847 17.9924 13.8734 18.0885 14.3666 18.0867Z" fill="white"/>
<path d="M14.993 13.1182C14.993 13.5134 14.9899 13.9091 14.993 14.3043C14.9963 14.4015 14.9789 14.4984 14.9421 14.5884C14.9052 14.6785 14.8497 14.7597 14.7791 14.8267C14.4842 15.118 14.1944 15.4151 13.8964 15.7054C13.6222 15.9739 13.2463 15.9796 12.9944 15.7261C12.7426 15.4727 12.7525 15.103 13.0225 14.8241C13.226 14.6164 13.4379 14.4164 13.6373 14.2009C13.6988 14.1316 13.7353 14.0437 13.7411 13.9511C13.7494 13.2579 13.7411 12.5646 13.7474 11.8739C13.7462 11.7926 13.7611 11.7119 13.7912 11.6364C13.8213 11.5609 13.8661 11.4921 13.9229 11.4339C13.9797 11.3758 14.0474 11.3294 14.1221 11.2976C14.1969 11.2657 14.2772 11.2489 14.3585 11.2481C14.7049 11.2429 14.9785 11.5145 14.9894 11.8754C14.992 11.9601 14.9894 12.0442 14.9894 12.1284L14.993 13.1182Z" fill="white"/>
</g>
<defs>
<clipPath id="clip0_7340_286">
<rect width="18.6667" height="18.6667" fill="white" transform="translate(0.671875 0.666016)"/>
</clipPath>
</defs>
</svg>
