<svg width="32" height="32" viewBox="0 0 32 32" fill="none" xmlns="http://www.w3.org/2000/svg">
<path d="M29.3214 10.5999C29.3193 10.5036 29.3063 10.4079 29.2827 10.3146C29.2734 10.2812 29.2547 10.2492 29.2427 10.2159C29.2147 10.1399 29.1894 10.0652 29.1494 9.99589C29.1281 9.95989 29.0987 9.93056 29.0734 9.89589C29.0307 9.83589 28.9894 9.77456 28.9374 9.72256C28.9067 9.69322 28.8667 9.66922 28.8334 9.64122C28.7814 9.59856 28.7334 9.55189 28.6734 9.51589C28.6681 9.51189 28.6614 9.51189 28.6547 9.50789L28.6441 9.49989L16.6721 2.84656C16.4742 2.73686 16.2518 2.67919 16.0256 2.67896C15.7994 2.67872 15.5768 2.73593 15.3787 2.84522L3.35073 9.49856C3.34673 9.50256 3.34273 9.50789 3.33606 9.51189L3.32273 9.51722C3.27606 9.54389 3.2414 9.58256 3.1974 9.61456C3.1494 9.65056 3.09873 9.68256 3.05606 9.72389C3.01606 9.76522 2.9854 9.81322 2.95073 9.85989C2.91473 9.90656 2.87473 9.94789 2.8454 9.99856C2.81073 10.0559 2.79206 10.1212 2.76673 10.1839C2.74806 10.2279 2.72406 10.2692 2.71206 10.3172C2.68904 10.4089 2.67607 10.5028 2.6734 10.5972C2.67206 10.6199 2.66406 10.6399 2.66406 10.6639V21.3332C2.66406 21.8172 2.92673 22.2639 3.35073 22.4986L15.3214 29.1479L15.3227 29.1492L15.3254 29.1506L15.3521 29.1652C15.4094 29.1972 15.4721 29.2146 15.5321 29.2372C15.5747 29.2546 15.6161 29.2772 15.6614 29.2892C15.8827 29.3463 16.1148 29.3463 16.3361 29.2892C16.3801 29.2772 16.4214 29.2546 16.4654 29.2372C16.5254 29.2146 16.5881 29.1986 16.6454 29.1652L16.6721 29.1506L16.6747 29.1492L16.6761 29.1479L28.6467 22.4986C29.0681 22.2639 29.3307 21.8172 29.3307 21.3332V10.6639C29.3307 10.6412 29.3227 10.6226 29.3214 10.5999V10.5999ZM15.9601 15.8292L6.7414 10.6732L10.4241 8.63589L19.5361 13.8426L15.9601 15.8292V15.8292ZM16.0241 5.53722L25.2521 10.6666L22.2601 12.3292L13.1534 7.12522L16.0241 5.53722V5.53722ZM17.3307 25.7346L17.3334 18.1626L21.3307 15.9252V19.9999L23.9974 18.6666V14.4332L26.6641 12.9412V20.5479L17.3307 25.7346Z" fill="#00B533"/>
</svg>
