<svg width="130" height="31" viewBox="0 0 130 31" fill="none" xmlns="http://www.w3.org/2000/svg">
<g clip-path="url(#clip0_10184_1487)">
<path d="M19.4822 14.4474L24.7861 7.63102L28.0011 3.5H23.0636H20.8861H15.9486L14.928 4.8115L9.89846 11.2764L7.42969 14.4474L9.89846 17.6222L12.3672 14.4474L17.6711 7.63102H19.8502L17.0134 11.2764L14.5447 14.4474L17.0134 17.6222L21.4842 23.3671L24.6975 27.5L27.0436 24.4858L27.1663 24.3271L26.42 23.3671L19.4822 14.4474Z" fill="#1893FF"/>
<path d="M19.8261 25.1002L18.4629 23.3689L15.3324 19.3898L12.9023 16.3028L10.8181 18.9673L13.2996 22.1408L14.2603 23.3689H11.9364L4.96293 14.4494L9.46691 8.6902L13.5256 3.5H8.56269L7.23719 5.19564L2.48147 11.2778L0 14.4494L2.48147 17.6228L8.28868 25.0495L10.205 27.5H13.5325H17.4902H21.715L19.8261 25.1002Z" fill="#FF1749"/>
</g>
<path d="M42.2891 6.42969C41.8255 6.42969 41.4141 6.52083 41.0547 6.70312C40.7005 6.88021 40.401 7.13802 40.1562 7.47656C39.9167 7.8151 39.7344 8.22396 39.6094 8.70312C39.4844 9.18229 39.4219 9.72135 39.4219 10.3203C39.4219 11.1276 39.5208 11.8177 39.7188 12.3906C39.9219 12.9583 40.2344 13.3932 40.6562 13.6953C41.0781 13.9922 41.6224 14.1406 42.2891 14.1406C42.7526 14.1406 43.2161 14.0885 43.6797 13.9844C44.1484 13.8802 44.6562 13.7318 45.2031 13.5391V15.5703C44.6979 15.7786 44.2005 15.9271 43.7109 16.0156C43.2214 16.1094 42.6719 16.1562 42.0625 16.1562C40.8854 16.1562 39.9167 15.9141 39.1562 15.4297C38.401 14.9401 37.8411 14.2578 37.4766 13.3828C37.112 12.5026 36.9297 11.4766 36.9297 10.3047C36.9297 9.4401 37.0469 8.64844 37.2812 7.92969C37.5156 7.21094 37.8594 6.58854 38.3125 6.0625C38.7656 5.53646 39.3255 5.13021 39.9922 4.84375C40.6589 4.55729 41.4245 4.41406 42.2891 4.41406C42.8568 4.41406 43.4245 4.48698 43.9922 4.63281C44.5651 4.77344 45.112 4.96875 45.6328 5.21875L44.8516 7.1875C44.4245 6.98438 43.9948 6.80729 43.5625 6.65625C43.1302 6.50521 42.7057 6.42969 42.2891 6.42969ZM51.0312 7.08594C52.2031 7.08594 53.1016 7.34115 53.7266 7.85156C54.3516 8.36198 54.6641 9.13802 54.6641 10.1797V16H53L52.5391 14.8125H52.4766C52.2266 15.125 51.9714 15.3802 51.7109 15.5781C51.4505 15.776 51.151 15.9219 50.8125 16.0156C50.474 16.1094 50.0625 16.1562 49.5781 16.1562C49.0625 16.1562 48.599 16.0573 48.1875 15.8594C47.7812 15.6615 47.4609 15.3594 47.2266 14.9531C46.9922 14.5417 46.875 14.0208 46.875 13.3906C46.875 12.4635 47.2005 11.7812 47.8516 11.3438C48.5026 10.901 49.4792 10.6562 50.7812 10.6094L52.2969 10.5625V10.1797C52.2969 9.72135 52.1771 9.38542 51.9375 9.17188C51.6979 8.95833 51.3646 8.85156 50.9375 8.85156C50.5156 8.85156 50.1016 8.91146 49.6953 9.03125C49.2891 9.15104 48.8828 9.30208 48.4766 9.48438L47.6875 7.875C48.151 7.63021 48.6693 7.4375 49.2422 7.29688C49.8203 7.15625 50.4167 7.08594 51.0312 7.08594ZM52.2969 11.9531L51.375 11.9844C50.6042 12.0052 50.0677 12.1432 49.7656 12.3984C49.4688 12.6536 49.3203 12.9896 49.3203 13.4062C49.3203 13.7708 49.4271 14.0312 49.6406 14.1875C49.8542 14.3385 50.1328 14.4141 50.4766 14.4141C50.987 14.4141 51.4167 14.263 51.7656 13.9609C52.1198 13.6589 52.2969 13.2292 52.2969 12.6719V11.9531ZM62 7.10156C62.1198 7.10156 62.2578 7.10938 62.4141 7.125C62.5755 7.13542 62.7057 7.15104 62.8047 7.17188L62.625 9.40625C62.5469 9.38021 62.4349 9.36198 62.2891 9.35156C62.1484 9.33594 62.026 9.32812 61.9219 9.32812C61.6146 9.32812 61.3151 9.36719 61.0234 9.44531C60.737 9.52344 60.4792 9.65104 60.25 9.82812C60.0208 10 59.8385 10.2292 59.7031 10.5156C59.5729 10.7969 59.5078 11.1432 59.5078 11.5547V16H57.125V7.26562H58.9297L59.2812 8.73438H59.3984C59.5703 8.4375 59.7839 8.16667 60.0391 7.92188C60.2995 7.67188 60.5938 7.47396 60.9219 7.32812C61.2552 7.17708 61.6146 7.10156 62 7.10156ZM66.9453 19.8438C65.7266 19.8438 64.7943 19.6302 64.1484 19.2031C63.5078 18.7812 63.1875 18.1875 63.1875 17.4219C63.1875 16.8958 63.3516 16.4557 63.6797 16.1016C64.0078 15.7474 64.4896 15.4948 65.125 15.3438C64.8802 15.2396 64.6667 15.0703 64.4844 14.8359C64.3021 14.5964 64.2109 14.3438 64.2109 14.0781C64.2109 13.7448 64.3073 13.4688 64.5 13.25C64.6927 13.026 64.9714 12.8073 65.3359 12.5938C64.8776 12.3958 64.513 12.0781 64.2422 11.6406C63.9766 11.2031 63.8438 10.6875 63.8438 10.0938C63.8438 9.45833 63.9818 8.91927 64.2578 8.47656C64.5391 8.02865 64.9453 7.6875 65.4766 7.45312C66.013 7.21875 66.6641 7.10156 67.4297 7.10156C67.5911 7.10156 67.7786 7.11198 67.9922 7.13281C68.2057 7.15365 68.401 7.17708 68.5781 7.20312C68.7604 7.22917 68.8828 7.25 68.9453 7.26562H71.9922V8.47656L70.625 8.82812C70.75 9.02083 70.8438 9.22656 70.9062 9.44531C70.9688 9.66406 71 9.89583 71 10.1406C71 11.0781 70.6719 11.8099 70.0156 12.3359C69.3646 12.8568 68.4583 13.1172 67.2969 13.1172C67.0208 13.1016 66.7604 13.0807 66.5156 13.0547C66.3958 13.1484 66.3047 13.2474 66.2422 13.3516C66.1797 13.4557 66.1484 13.5651 66.1484 13.6797C66.1484 13.7943 66.1953 13.8906 66.2891 13.9688C66.388 14.0417 66.5339 14.099 66.7266 14.1406C66.9245 14.1771 67.1693 14.1953 67.4609 14.1953H68.9453C69.9036 14.1953 70.6328 14.401 71.1328 14.8125C71.638 15.224 71.8906 15.8281 71.8906 16.625C71.8906 17.6458 71.4635 18.4375 70.6094 19C69.7604 19.5625 68.5391 19.8438 66.9453 19.8438ZM67.0469 18.2891C67.6146 18.2891 68.1016 18.2344 68.5078 18.125C68.9193 18.0208 69.2344 17.8698 69.4531 17.6719C69.6719 17.4792 69.7812 17.2474 69.7812 16.9766C69.7812 16.7578 69.7161 16.5833 69.5859 16.4531C69.4609 16.3281 69.2682 16.2396 69.0078 16.1875C68.7526 16.1354 68.4245 16.1094 68.0234 16.1094H66.7891C66.4974 16.1094 66.2344 16.1562 66 16.25C65.7708 16.3438 65.5885 16.474 65.4531 16.6406C65.3177 16.8125 65.25 17.0104 65.25 17.2344C65.25 17.5625 65.4062 17.8203 65.7188 18.0078C66.0365 18.1953 66.4792 18.2891 67.0469 18.2891ZM67.4297 11.6641C67.8776 11.6641 68.2057 11.526 68.4141 11.25C68.6224 10.974 68.7266 10.599 68.7266 10.125C68.7266 9.59896 68.6172 9.20573 68.3984 8.94531C68.1849 8.67969 67.862 8.54688 67.4297 8.54688C66.9922 8.54688 66.6641 8.67969 66.4453 8.94531C66.2266 9.20573 66.1172 9.59896 66.1172 10.125C66.1172 10.599 66.224 10.974 66.4375 11.25C66.6562 11.526 66.987 11.6641 67.4297 11.6641ZM81.375 11.6172C81.375 12.3464 81.276 12.9922 81.0781 13.5547C80.8854 14.1172 80.6016 14.5938 80.2266 14.9844C79.8568 15.3698 79.4089 15.6615 78.8828 15.8594C78.362 16.0573 77.7734 16.1562 77.1172 16.1562C76.5026 16.1562 75.9375 16.0573 75.4219 15.8594C74.9115 15.6615 74.4661 15.3698 74.0859 14.9844C73.7109 14.5938 73.4193 14.1172 73.2109 13.5547C73.0078 12.9922 72.9062 12.3464 72.9062 11.6172C72.9062 10.6484 73.0781 9.82812 73.4219 9.15625C73.7656 8.48438 74.2552 7.97396 74.8906 7.625C75.526 7.27604 76.2839 7.10156 77.1641 7.10156C77.9818 7.10156 78.7057 7.27604 79.3359 7.625C79.9714 7.97396 80.4688 8.48438 80.8281 9.15625C81.1927 9.82812 81.375 10.6484 81.375 11.6172ZM75.3359 11.6172C75.3359 12.1901 75.3984 12.6719 75.5234 13.0625C75.6484 13.4531 75.8438 13.7474 76.1094 13.9453C76.375 14.1432 76.7214 14.2422 77.1484 14.2422C77.5703 14.2422 77.9115 14.1432 78.1719 13.9453C78.4375 13.7474 78.6302 13.4531 78.75 13.0625C78.875 12.6719 78.9375 12.1901 78.9375 11.6172C78.9375 11.0391 78.875 10.5599 78.75 10.1797C78.6302 9.79427 78.4375 9.50521 78.1719 9.3125C77.9062 9.11979 77.5599 9.02344 77.1328 9.02344C76.5026 9.02344 76.0443 9.23958 75.7578 9.67188C75.4766 10.1042 75.3359 10.7526 75.3359 11.6172Z" fill="#FF1749"/>
<path d="M87.1797 4.57812C88.6536 4.57812 89.7292 4.89583 90.4062 5.53125C91.0833 6.16146 91.4219 7.03125 91.4219 8.14062C91.4219 8.64062 91.3464 9.11979 91.1953 9.57812C91.0443 10.0312 90.7969 10.4349 90.4531 10.7891C90.1146 11.1432 89.6615 11.4245 89.0938 11.6328C88.526 11.8359 87.8255 11.9375 86.9922 11.9375H85.9531V16H83.5312V4.57812H87.1797ZM87.0547 6.5625H85.9531V9.95312H86.75C87.2031 9.95312 87.5964 9.89323 87.9297 9.77344C88.263 9.65365 88.5208 9.46615 88.7031 9.21094C88.8854 8.95573 88.9766 8.6276 88.9766 8.22656C88.9766 7.66406 88.8203 7.2474 88.5078 6.97656C88.1953 6.70052 87.7109 6.5625 87.0547 6.5625ZM98.2656 7.10156C98.3854 7.10156 98.5234 7.10938 98.6797 7.125C98.8411 7.13542 98.9714 7.15104 99.0703 7.17188L98.8906 9.40625C98.8125 9.38021 98.7005 9.36198 98.5547 9.35156C98.4141 9.33594 98.2917 9.32812 98.1875 9.32812C97.8802 9.32812 97.5807 9.36719 97.2891 9.44531C97.0026 9.52344 96.7448 9.65104 96.5156 9.82812C96.2865 10 96.1042 10.2292 95.9688 10.5156C95.8385 10.7969 95.7734 11.1432 95.7734 11.5547V16H93.3906V7.26562H95.1953L95.5469 8.73438H95.6641C95.8359 8.4375 96.0495 8.16667 96.3047 7.92188C96.5651 7.67188 96.8594 7.47396 97.1875 7.32812C97.5208 7.17708 97.8802 7.10156 98.2656 7.10156ZM103.039 7.26562V16H100.656V7.26562H103.039ZM101.852 3.84375C102.206 3.84375 102.51 3.92708 102.766 4.09375C103.021 4.25521 103.148 4.5599 103.148 5.00781C103.148 5.45052 103.021 5.75781 102.766 5.92969C102.51 6.09635 102.206 6.17969 101.852 6.17969C101.492 6.17969 101.185 6.09635 100.93 5.92969C100.68 5.75781 100.555 5.45052 100.555 5.00781C100.555 4.5599 100.68 4.25521 100.93 4.09375C101.185 3.92708 101.492 3.84375 101.852 3.84375ZM115.805 7.10156C116.794 7.10156 117.542 7.35677 118.047 7.86719C118.557 8.3724 118.812 9.1849 118.812 10.3047V16H116.422V10.8984C116.422 10.2734 116.315 9.80208 116.102 9.48438C115.888 9.16667 115.557 9.00781 115.109 9.00781C114.479 9.00781 114.031 9.23438 113.766 9.6875C113.5 10.1354 113.367 10.7786 113.367 11.6172V16H110.984V10.8984C110.984 10.4818 110.938 10.1328 110.844 9.85156C110.75 9.57031 110.607 9.35938 110.414 9.21875C110.221 9.07812 109.974 9.00781 109.672 9.00781C109.229 9.00781 108.88 9.11979 108.625 9.34375C108.375 9.5625 108.195 9.88802 108.086 10.3203C107.982 10.7474 107.93 11.2708 107.93 11.8906V16H105.547V7.26562H107.367L107.688 8.38281H107.82C107.997 8.08073 108.219 7.83594 108.484 7.64844C108.755 7.46094 109.052 7.32292 109.375 7.23438C109.698 7.14583 110.026 7.10156 110.359 7.10156C111 7.10156 111.542 7.20573 111.984 7.41406C112.432 7.6224 112.776 7.94531 113.016 8.38281H113.227C113.487 7.9349 113.854 7.60938 114.328 7.40625C114.807 7.20312 115.299 7.10156 115.805 7.10156ZM124.867 7.10156C125.674 7.10156 126.37 7.25781 126.953 7.57031C127.536 7.8776 127.987 8.32552 128.305 8.91406C128.622 9.5026 128.781 10.2214 128.781 11.0703V12.2266H123.148C123.174 12.8984 123.375 13.4271 123.75 13.8125C124.13 14.1927 124.656 14.3828 125.328 14.3828C125.885 14.3828 126.396 14.3255 126.859 14.2109C127.323 14.0964 127.799 13.9245 128.289 13.6953V15.5391C127.857 15.7526 127.404 15.9089 126.93 16.0078C126.461 16.1068 125.891 16.1562 125.219 16.1562C124.344 16.1562 123.568 15.9948 122.891 15.6719C122.219 15.349 121.69 14.8568 121.305 14.1953C120.924 13.5339 120.734 12.7005 120.734 11.6953C120.734 10.6745 120.906 9.82552 121.25 9.14844C121.599 8.46615 122.083 7.95573 122.703 7.61719C123.323 7.27344 124.044 7.10156 124.867 7.10156ZM124.883 8.79688C124.419 8.79688 124.034 8.94531 123.727 9.24219C123.424 9.53906 123.25 10.0052 123.203 10.6406H126.547C126.542 10.2865 126.477 9.97135 126.352 9.69531C126.232 9.41927 126.049 9.20052 125.805 9.03906C125.565 8.8776 125.258 8.79688 124.883 8.79688Z" fill="#1893FF"/>
<path d="M39.3477 29V23.2891H40.2852V28.2031H42.7109V29H39.3477ZM47.4336 26.8281C47.4336 27.1875 47.3867 27.5065 47.293 27.7852C47.1992 28.0638 47.0625 28.2995 46.8828 28.4922C46.7031 28.6823 46.487 28.8281 46.2344 28.9297C45.9818 29.0286 45.6966 29.0781 45.3789 29.0781C45.082 29.0781 44.8099 29.0286 44.5625 28.9297C44.3151 28.8281 44.1003 28.6823 43.918 28.4922C43.7383 28.2995 43.599 28.0638 43.5 27.7852C43.401 27.5065 43.3516 27.1875 43.3516 26.8281C43.3516 26.3516 43.4336 25.9479 43.5977 25.6172C43.7643 25.2839 44.0013 25.0299 44.3086 24.8555C44.6159 24.681 44.9818 24.5938 45.4062 24.5938C45.8047 24.5938 46.1562 24.681 46.4609 24.8555C46.7656 25.0299 47.0039 25.2839 47.1758 25.6172C47.3477 25.9505 47.4336 26.3542 47.4336 26.8281ZM44.2969 26.8281C44.2969 27.1432 44.3346 27.4128 44.4102 27.6367C44.4883 27.8607 44.6081 28.0326 44.7695 28.1523C44.931 28.2695 45.1393 28.3281 45.3945 28.3281C45.6497 28.3281 45.8581 28.2695 46.0195 28.1523C46.181 28.0326 46.2995 27.8607 46.375 27.6367C46.4505 27.4128 46.4883 27.1432 46.4883 26.8281C46.4883 26.513 46.4505 26.2461 46.375 26.0273C46.2995 25.806 46.181 25.638 46.0195 25.5234C45.8581 25.4062 45.6484 25.3477 45.3906 25.3477C45.0104 25.3477 44.7331 25.4753 44.5586 25.7305C44.3841 25.9857 44.2969 26.3516 44.2969 26.8281ZM49.7227 30.9219C49.1367 30.9219 48.6875 30.8164 48.375 30.6055C48.0625 30.3945 47.9062 30.099 47.9062 29.7188C47.9062 29.4531 47.9896 29.2279 48.1562 29.043C48.3229 28.8607 48.5612 28.7344 48.8711 28.6641C48.7539 28.612 48.6523 28.5312 48.5664 28.4219C48.4831 28.3099 48.4414 28.1862 48.4414 28.0508C48.4414 27.8893 48.487 27.7513 48.5781 27.6367C48.6693 27.5221 48.806 27.4115 48.9883 27.3047C48.7617 27.2083 48.5794 27.0521 48.4414 26.8359C48.306 26.6172 48.2383 26.3607 48.2383 26.0664C48.2383 25.7539 48.3047 25.4883 48.4375 25.2695C48.5703 25.0482 48.7643 24.8802 49.0195 24.7656C49.2747 24.6484 49.5833 24.5898 49.9453 24.5898C50.0234 24.5898 50.1081 24.5951 50.1992 24.6055C50.293 24.6133 50.3789 24.6237 50.457 24.6367C50.5378 24.6471 50.599 24.6589 50.6406 24.6719H52.1367V25.1836L51.4023 25.3203C51.4727 25.4193 51.5286 25.5326 51.5703 25.6602C51.612 25.7852 51.6328 25.9219 51.6328 26.0703C51.6328 26.5182 51.4779 26.8711 51.168 27.1289C50.8607 27.3841 50.4362 27.5117 49.8945 27.5117C49.7643 27.5065 49.638 27.4961 49.5156 27.4805C49.4219 27.5378 49.3503 27.6016 49.3008 27.6719C49.2513 27.7396 49.2266 27.8164 49.2266 27.9023C49.2266 27.9727 49.2513 28.0299 49.3008 28.0742C49.3503 28.1159 49.4232 28.1471 49.5195 28.168C49.6185 28.1888 49.7383 28.1992 49.8789 28.1992H50.625C51.099 28.1992 51.4609 28.2995 51.7109 28.5C51.9609 28.7005 52.0859 28.9948 52.0859 29.3828C52.0859 29.875 51.8828 30.2539 51.4766 30.5195C51.0703 30.7878 50.4857 30.9219 49.7227 30.9219ZM49.7578 30.2773C50.0781 30.2773 50.3477 30.2461 50.5664 30.1836C50.7852 30.1211 50.9505 30.0312 51.0625 29.9141C51.1745 29.7995 51.2305 29.6628 51.2305 29.5039C51.2305 29.3633 51.1953 29.2552 51.125 29.1797C51.0547 29.1042 50.9492 29.0521 50.8086 29.0234C50.668 28.9948 50.4935 28.9805 50.2852 28.9805H49.6055C49.4362 28.9805 49.2865 29.0065 49.1562 29.0586C49.026 29.1133 48.9245 29.1914 48.8516 29.293C48.7812 29.3945 48.7461 29.5169 48.7461 29.6602C48.7461 29.8581 48.8333 30.0104 49.0078 30.1172C49.1849 30.224 49.4349 30.2773 49.7578 30.2773ZM49.9375 26.9102C50.2057 26.9102 50.4049 26.8372 50.5352 26.6914C50.6654 26.543 50.7305 26.3346 50.7305 26.0664C50.7305 25.7747 50.6628 25.556 50.5273 25.4102C50.3945 25.2643 50.1966 25.1914 49.9336 25.1914C49.6758 25.1914 49.4792 25.2656 49.3438 25.4141C49.2109 25.5625 49.1445 25.7826 49.1445 26.0742C49.1445 26.3372 49.2109 26.543 49.3438 26.6914C49.4792 26.8372 49.6771 26.9102 49.9375 26.9102ZM53.8438 24.6758V29H52.9258V24.6758H53.8438ZM53.3906 23.0195C53.5312 23.0195 53.6523 23.0573 53.7539 23.1328C53.8581 23.2083 53.9102 23.3385 53.9102 23.5234C53.9102 23.7057 53.8581 23.8359 53.7539 23.9141C53.6523 23.9896 53.5312 24.0273 53.3906 24.0273C53.2448 24.0273 53.1211 23.9896 53.0195 23.9141C52.9206 23.8359 52.8711 23.7057 52.8711 23.5234C52.8711 23.3385 52.9206 23.2083 53.0195 23.1328C53.1211 23.0573 53.2448 23.0195 53.3906 23.0195ZM58.0664 27.7656C58.0664 28.0495 57.9974 28.2891 57.8594 28.4844C57.7214 28.6797 57.5195 28.8281 57.2539 28.9297C56.9909 29.0286 56.668 29.0781 56.2852 29.0781C55.9831 29.0781 55.7227 29.056 55.5039 29.0117C55.2878 28.9701 55.0833 28.9049 54.8906 28.8164V28.0234C55.0964 28.1198 55.3268 28.2031 55.582 28.2734C55.8398 28.3438 56.0833 28.3789 56.3125 28.3789C56.6146 28.3789 56.832 28.332 56.9648 28.2383C57.0977 28.1419 57.1641 28.0143 57.1641 27.8555C57.1641 27.7617 57.1367 27.6784 57.082 27.6055C57.0299 27.5299 56.931 27.4531 56.7852 27.375C56.6419 27.2943 56.431 27.1979 56.1523 27.0859C55.8789 26.9766 55.6484 26.8672 55.4609 26.7578C55.2734 26.6484 55.1315 26.5169 55.0352 26.3633C54.9388 26.207 54.8906 26.0078 54.8906 25.7656C54.8906 25.3828 55.0417 25.0924 55.3438 24.8945C55.6484 24.694 56.0508 24.5938 56.5508 24.5938C56.8164 24.5938 57.0664 24.6211 57.3008 24.6758C57.5378 24.7279 57.7695 24.8047 57.9961 24.9062L57.707 25.5977C57.5117 25.5117 57.3151 25.4414 57.1172 25.3867C56.9219 25.3294 56.7227 25.3008 56.5195 25.3008C56.2826 25.3008 56.1016 25.3372 55.9766 25.4102C55.8542 25.4831 55.793 25.5872 55.793 25.7227C55.793 25.8242 55.8229 25.9102 55.8828 25.9805C55.9427 26.0508 56.0456 26.1211 56.1914 26.1914C56.3398 26.2617 56.5456 26.349 56.8086 26.4531C57.0664 26.5521 57.2891 26.6562 57.4766 26.7656C57.6667 26.8724 57.8125 27.0039 57.9141 27.1602C58.0156 27.3164 58.0664 27.5182 58.0664 27.7656ZM60.668 28.3359C60.7878 28.3359 60.9062 28.3255 61.0234 28.3047C61.1406 28.2812 61.2474 28.2539 61.3438 28.2227V28.918C61.2422 28.9622 61.1107 29 60.9492 29.0312C60.7878 29.0625 60.6198 29.0781 60.4453 29.0781C60.2005 29.0781 59.9805 29.0378 59.7852 28.957C59.5898 28.8737 59.4349 28.7318 59.3203 28.5312C59.2057 28.3307 59.1484 28.0534 59.1484 27.6992V25.375H58.5586V24.9648L59.1914 24.6406L59.4922 23.7148H60.0703V24.6758H61.3086V25.375H60.0703V27.6875C60.0703 27.9062 60.125 28.069 60.2344 28.1758C60.3438 28.2826 60.4883 28.3359 60.668 28.3359ZM63.1406 24.6758V29H62.2227V24.6758H63.1406ZM62.6875 23.0195C62.8281 23.0195 62.9492 23.0573 63.0508 23.1328C63.1549 23.2083 63.207 23.3385 63.207 23.5234C63.207 23.7057 63.1549 23.8359 63.0508 23.9141C62.9492 23.9896 62.8281 24.0273 62.6875 24.0273C62.5417 24.0273 62.418 23.9896 62.3164 23.9141C62.2174 23.8359 62.168 23.7057 62.168 23.5234C62.168 23.3385 62.2174 23.2083 62.3164 23.1328C62.418 23.0573 62.5417 23.0195 62.6875 23.0195ZM66.1992 29.0781C65.7904 29.0781 65.4362 28.9987 65.1367 28.8398C64.8372 28.681 64.6068 28.4375 64.4453 28.1094C64.2839 27.7812 64.2031 27.3646 64.2031 26.8594C64.2031 26.3333 64.2917 25.9036 64.4688 25.5703C64.6458 25.237 64.8906 24.9909 65.2031 24.832C65.5182 24.6732 65.8789 24.5938 66.2852 24.5938C66.543 24.5938 66.776 24.6198 66.9844 24.6719C67.1953 24.7214 67.3737 24.7826 67.5195 24.8555L67.2461 25.5898C67.0872 25.5247 66.9245 25.4701 66.7578 25.4258C66.5911 25.3815 66.431 25.3594 66.2773 25.3594C66.0247 25.3594 65.8138 25.4154 65.6445 25.5273C65.4779 25.6393 65.3529 25.806 65.2695 26.0273C65.1888 26.2487 65.1484 26.5234 65.1484 26.8516C65.1484 27.1693 65.1901 27.4375 65.2734 27.6562C65.3568 27.8724 65.4805 28.0365 65.6445 28.1484C65.8086 28.2578 66.0104 28.3125 66.25 28.3125C66.487 28.3125 66.6992 28.2839 66.8867 28.2266C67.0742 28.1693 67.2513 28.0951 67.418 28.0039V28.8008C67.2539 28.8945 67.0781 28.9635 66.8906 29.0078C66.7031 29.0547 66.4727 29.0781 66.1992 29.0781ZM71.3398 27.7656C71.3398 28.0495 71.2708 28.2891 71.1328 28.4844C70.9948 28.6797 70.793 28.8281 70.5273 28.9297C70.2643 29.0286 69.9414 29.0781 69.5586 29.0781C69.2565 29.0781 68.9961 29.056 68.7773 29.0117C68.5612 28.9701 68.3568 28.9049 68.1641 28.8164V28.0234C68.3698 28.1198 68.6003 28.2031 68.8555 28.2734C69.1133 28.3438 69.3568 28.3789 69.5859 28.3789C69.888 28.3789 70.1055 28.332 70.2383 28.2383C70.3711 28.1419 70.4375 28.0143 70.4375 27.8555C70.4375 27.7617 70.4102 27.6784 70.3555 27.6055C70.3034 27.5299 70.2044 27.4531 70.0586 27.375C69.9154 27.2943 69.7044 27.1979 69.4258 27.0859C69.1523 26.9766 68.9219 26.8672 68.7344 26.7578C68.5469 26.6484 68.4049 26.5169 68.3086 26.3633C68.2122 26.207 68.1641 26.0078 68.1641 25.7656C68.1641 25.3828 68.3151 25.0924 68.6172 24.8945C68.9219 24.694 69.3242 24.5938 69.8242 24.5938C70.0898 24.5938 70.3398 24.6211 70.5742 24.6758C70.8112 24.7279 71.043 24.8047 71.2695 24.9062L70.9805 25.5977C70.7852 25.5117 70.5885 25.4414 70.3906 25.3867C70.1953 25.3294 69.9961 25.3008 69.793 25.3008C69.556 25.3008 69.375 25.3372 69.25 25.4102C69.1276 25.4831 69.0664 25.5872 69.0664 25.7227C69.0664 25.8242 69.0964 25.9102 69.1562 25.9805C69.2161 26.0508 69.319 26.1211 69.4648 26.1914C69.6133 26.2617 69.819 26.349 70.082 26.4531C70.3398 26.5521 70.5625 26.6562 70.75 26.7656C70.9401 26.8724 71.0859 27.0039 71.1875 27.1602C71.2891 27.3164 71.3398 27.5182 71.3398 27.7656Z" fill="#C4C9D3"/>
<defs>
<clipPath id="clip0_10184_1487">
<rect width="28" height="24" fill="white" transform="translate(0 3.5)"/>
</clipPath>
</defs>
</svg>
