<svg width="20" height="20" viewBox="0 0 20 20" fill="none" xmlns="http://www.w3.org/2000/svg">
<g clip-path="url(#clip0_10390_1527)">
<path d="M4.5499 3.69352C6.06203 2.38324 7.99655 1.66323 9.9974 1.66602C14.5999 1.66602 18.3307 5.39686 18.3307 9.99936C18.3307 11.7794 17.7724 13.4294 16.8224 14.7827L14.1641 9.99936H16.6641C16.6642 8.69238 16.2801 7.41419 15.5596 6.32374C14.8391 5.23328 13.814 4.37866 12.6117 3.86613C11.4094 3.3536 10.083 3.20578 8.79736 3.44104C7.51173 3.6763 6.32361 4.28427 5.38073 5.18936L4.5499 3.69352ZM15.4449 16.3052C13.9328 17.6155 11.9982 18.3355 9.9974 18.3327C5.3949 18.3327 1.66406 14.6019 1.66406 9.99936C1.66406 8.21936 2.2224 6.56936 3.1724 5.21602L5.83073 9.99936H3.33073C3.33062 11.3063 3.71469 12.5845 4.43518 13.675C5.15566 14.7654 6.18079 15.6201 7.38308 16.1326C8.58537 16.6451 9.9118 16.7929 11.1974 16.5577C12.4831 16.3224 13.6712 15.7144 14.6141 14.8094L15.4449 16.3052Z" fill="#989EA3"/>
</g>
<defs>
<clipPath id="clip0_10390_1527">
<rect width="20" height="20" fill="white"/>
</clipPath>
</defs>
</svg>
