<svg width="24" height="24" viewBox="0 0 24 24" fill="none" xmlns="http://www.w3.org/2000/svg">
<path fill-rule="evenodd" clip-rule="evenodd" d="M4 9V4H9V9H4ZM2 3C2 2.44772 2.44772 2 3 2H10C10.5523 2 11 2.44772 11 3V10C11 10.5523 10.5523 11 10 11H3C2.44772 11 2 10.5523 2 10V3ZM15 9V4H20V9H15ZM13 3C13 2.44772 13.4477 2 14 2H21C21.5523 2 22 2.44772 22 3V10C22 10.5523 21.5523 11 21 11H14C13.4477 11 13 10.5523 13 10V3ZM18 15.1717L15.1716 18.0001L18 20.8285L20.8284 18.0001L18 15.1717ZM18.7071 13.0504C18.3166 12.6598 17.6834 12.6598 17.2929 13.0504L13.0503 17.293C12.6597 17.6835 12.6597 18.3167 13.0503 18.7072L17.2929 22.9499C17.6834 23.3404 18.3166 23.3404 18.7071 22.9499L22.9497 18.7072C23.3403 18.3167 23.3403 17.6835 22.9497 17.293L18.7071 13.0504ZM4 20V15H9V20H4ZM2 14C2 13.4477 2.44772 13 3 13H10C10.5523 13 11 13.4477 11 14V21C11 21.5523 10.5523 22 10 22H3C2.44772 22 2 21.5523 2 21V14Z" fill="#5C6470"/>
</svg>
